# xmcd
#
# Track frame offsets:
#	150
#	18454
#	35956
#	54477
#	70673
#	90714
#	109647
#	128783
#	147487
#	163182
#	182440
#	201411
#	219663
#	238943
#
# Disc length: 3597 seconds
#
# Revision: 5
# Processed by: cddbd v1.5.1PL0 Copyright (c) Steve Scherf et al.
# Submitted via: EasyCDDAExtractor 8.2.1.1
#
DISCID=d30e0b0e
DTITLE=дамтгс вягстос - MAYA MAYA
DYEAR=2004
DGENRE=ROCK
TTITLE0=жытиа хакасси
TTITLE1=лиа апо та идиа
TTITLE2=MAYA MAYA
TTITLE3=де жтаиы поу се ацапгса
TTITLE4=лыяо лоу
TTITLE5=пеяаслема неваслема
TTITLE6=евы лиа пкгяожояиа
TTITLE7=апоье лехуса циа сема
TTITLE8=с' ацапы ла жобалаи
TTITLE9=алояе
TTITLE10=дийо соу пяобкгла
TTITLE11=лгвамг тоу вяомоу
TTITLE12=ломос де хекы
TTITLE13=MAYA MAYA AGIA NAPA ETHNO CLUB MIX
EXTD=www.sonymusic.gr, www.christosdantis.com\n
EXTT0=
EXTT1=
EXTT2=
EXTT3=
EXTT4=
EXTT5=
EXTT6=
EXTT7=
EXTT8=
EXTT9=
EXTT10=
EXTT11=
EXTT12=
EXTT13=
PLAYORDER=
